<svg xmlns="http://www.w3.org/2000/svg" xmlns:xlink="http://www.w3.org/1999/xlink" width="1920" height="2160" viewBox="0 0 1920 2160">
  <defs>
    <clipPath id="clip-商品介紹">
      <rect width="1920" height="2160"/>
    </clipPath>
  </defs>
  <g id="商品介紹" clip-path="url(#clip-商品介紹)">
    <rect width="1920" height="2160" fill="#fff"/>
    <g id="Header">
      <g id="Header-2" data-name="Header">
        <path d="M 1919.5 107.5 L 0.5 107.5 L 0.5 0.5000038146972656 L 1782.623291015625 0.5000038146972656 L 1919.5 0.5000038146972656 L 1919.5 107.5 Z" stroke="none"/>
        <path d="M 1 1.000007629394531 L 1 107 L 1919 107 L 1919 1.000007629394531 L 1782.623291015625 1.000007629394531 L 1 1.000007629394531 M 0 7.62939453125e-06 L 1782.623291015625 7.62939453125e-06 L 1920 7.62939453125e-06 L 1920 108 L 0 108 L 0 7.62939453125e-06 Z" stroke="none" fill="#707070"/>
      </g>
      <g id="LOGO">
        <g id="Rectangle_3" data-name="Rectangle 3" transform="translate(27 14)" fill="#fff" stroke="#707070" stroke-width="1">
          <rect width="250" height="80" stroke="none"/>
          <rect x="0.5" y="0.5" width="249" height="79" fill="none"/>
        </g>
        <text id="LOGO-2" data-name="LOGO" transform="translate(86 75)" font-size="50" font-family="SegoeUI, Segoe UI"><tspan x="0" y="0">LOGO</tspan></text>
      </g>
      <text id="關於盤子" transform="translate(1105 68)" fill="#fff" font-size="32" font-family="YuGothicUI-Regular, Yu Gothic UI"><tspan x="0" y="0">關於盤子</tspan></text>
      <text id="精選餐盤" transform="translate(1283 68)" fill="#fff" font-size="32" font-family="YuGothicUI-Regular, Yu Gothic UI"><tspan x="0" y="0">精選餐盤</tspan></text>
      <text id="餐盤總攬" transform="translate(1461 68)" fill="#fff" font-size="32" font-family="YuGothicUI-Regular, Yu Gothic UI"><tspan x="0" y="0">餐盤總攬</tspan></text>
      <text id="餐點搭配" transform="translate(1639 68)" fill="#fff" font-size="32" font-family="YuGothicUI-Regular, Yu Gothic UI"><tspan x="0" y="0">餐點搭配</tspan></text>
      <g id="Icon_map-grocery-or-supermarket" data-name="Icon map-grocery-or-supermarket" transform="translate(1814 29.272)">
        <path id="Path_2" data-name="Path 2" d="M34.56,30.24a2.88,2.88,0,1,1-2.88-2.88,2.88,2.88,0,0,1,2.88,2.88Z" transform="translate(14.72 12.016)" fill="#fff"/>
        <path id="Path_3" data-name="Path 3" d="M13.68,30.24a2.88,2.88,0,1,1-2.88-2.88,2.88,2.88,0,0,1,2.88,2.88Z" transform="translate(3.949 12.016)" fill="#fff"/>
        <path id="Path_4" data-name="Path 4" d="M47.959,34.226H16.093l.681-1.2a2.381,2.381,0,0,0,.238-1.72l-.664-2.776,29.574-1.668a2.288,2.288,0,0,0,2.038-2.329V9.858a2.14,2.14,0,0,0-2.041-2.215H11.346l-.4-1.665A2.078,2.078,0,0,0,8.971,4.32H2.041A2.133,2.133,0,0,0,0,6.535,2.133,2.133,0,0,0,2.041,8.75H7.394l5.449,22.756L10.7,35.278a2.377,2.377,0,0,0-.044,2.242,2.018,2.018,0,0,0,1.781,1.136H47.959a2.223,2.223,0,0,0,0-4.43Z" transform="translate(0 0)" fill="#fff"/>
      </g>
    </g>
    <g id="Banner" transform="translate(110 -2199)">
      <g id="Banner-2" data-name="Banner" transform="translate(250 2307)" fill="#ccc" stroke="#707070" stroke-width="1">
        <rect width="1200" height="675" stroke="none"/>
        <rect x="0.5" y="0.5" width="1199" height="674" fill="none"/>
      </g>
      <text id="餐盤總攬_雞度鮮莓" data-name="餐盤總攬 &gt; 雞度鮮莓" transform="translate(315 2343)" fill="#fff" font-size="24" font-family="YuGothicUI-Regular, Yu Gothic UI"><tspan x="0" y="0">餐盤總攬</tspan><tspan y="0" xml:space="preserve" font-family="SegoeUI, Segoe UI"> &gt; </tspan><tspan y="0">雞度鮮莓</tspan></text>
    </g>
    <g id="Body">
      <text id="_狗_雞度鮮莓" data-name="(狗)雞度鮮莓" transform="translate(378 871)" font-size="50" font-family="SegoeUI, Segoe UI"><tspan x="0" y="0">(</tspan><tspan y="0" font-family="YuGothicUI-Regular, Yu Gothic UI">狗</tspan><tspan y="0">)</tspan><tspan y="0" font-family="YuGothicUI-Regular, Yu Gothic UI">雞度鮮莓</tspan></text>
      <text id="嚴選上等放山雞肉_搭配營養滿分的鮮採藍莓_新鮮食材_:_放山雞肉_藍莓_南瓜_鸚嘴豆_保存方式_:_未開封_置於常溫保存期限3個月_開封後_請盡速食用完畢_食材產地_:_台灣" data-name="嚴選上等放山雞肉，搭配營養滿分的鮮採藍莓
新鮮食材 : 放山雞肉、藍莓、南瓜、鸚嘴豆
保存方式 : 未開封，置於常溫保存期限3個月。開封後，請盡速食用完畢。
食材產地 : 台灣" transform="translate(378 919)" font-size="32" font-family="YuGothicUI-Regular, Yu Gothic UI"><tspan x="0" y="0">嚴選上等放山雞肉，搭配營養滿分的鮮採藍莓</tspan><tspan y="0" font-family="SegoeUI, Segoe UI"></tspan><tspan x="0" y="43">新鮮食材</tspan><tspan y="43" xml:space="preserve" font-family="SegoeUI, Segoe UI"> : </tspan><tspan y="43">放山雞肉、藍莓、南瓜、鸚嘴豆</tspan><tspan y="43" font-family="SegoeUI, Segoe UI"></tspan><tspan x="0" y="86">保存方式</tspan><tspan y="86" xml:space="preserve" font-family="SegoeUI, Segoe UI"> : </tspan><tspan y="86">未開封，置於常溫保存期限</tspan><tspan y="86" font-family="SegoeUI, Segoe UI">3</tspan><tspan y="86">個月。開封後，請盡速食用完畢。</tspan><tspan y="86" font-family="SegoeUI, Segoe UI"></tspan><tspan x="0" y="129">食材產地</tspan><tspan y="129" xml:space="preserve" font-family="SegoeUI, Segoe UI"> : </tspan><tspan y="129">台灣</tspan></text>
      <g id="btn">
        <g id="Rectangle_24" data-name="Rectangle 24" transform="translate(1260 1050)" fill="#ccc" stroke="#707070" stroke-width="1">
          <rect width="300" height="60" rx="20" stroke="none"/>
          <rect x="0.5" y="0.5" width="299" height="59" rx="19.5" fill="none"/>
        </g>
        <text id="加入購物車" transform="translate(1330 1093)" font-size="32" font-family="YuGothicUI-Regular, Yu Gothic UI"><tspan x="0" y="0">加入購物車</tspan></text>
      </g>
      <g id="price">
        <text id="NT_80_元_" data-name="NT 80 元 " transform="translate(1094 1094)" fill="#f90303" font-size="32" font-family="SegoeUI-Bold, Segoe UI" font-weight="700"><tspan x="0" y="0">NT 80 </tspan><tspan y="0" font-family="YuGothicUI-Bold, Yu Gothic UI">元</tspan><tspan y="0"> </tspan></text>
        <line id="Line_1" data-name="Line 1" x2="130" transform="translate(1094.5 1102.5)" fill="none" stroke="#fe0505" stroke-width="5"/>
      </g>
    </g>
    <g id="relatedProduct" transform="translate(3 48)">
      <text id="相關產品-雞肉" transform="translate(809 1208)" font-size="50" font-family="YuGothicUI-Regular, Yu Gothic UI"><tspan x="0" y="0">相關產品</tspan><tspan y="0" font-family="SegoeUI, Segoe UI">-</tspan><tspan y="0">雞肉</tspan></text>
      <g id="card" transform="translate(136 -31)">
        <g id="pic" transform="translate(407 1302)" fill="#ccc" stroke="#707070" stroke-width="1">
          <rect width="240" height="240" rx="20" stroke="none"/>
          <rect x="0.5" y="0.5" width="239" height="239" rx="19.5" fill="none"/>
        </g>
        <g id="name" transform="translate(407 1542)" fill="#ccc" stroke="#707070" stroke-width="1">
          <rect width="240" height="50" stroke="none"/>
          <rect x="0.5" y="0.5" width="239" height="49" fill="none"/>
        </g>
        <text id="雞不可濕" transform="translate(471 1579)" font-size="28" font-family="YuGothicUI-Regular, Yu Gothic UI"><tspan x="0" y="0">雞不可濕</tspan></text>
      </g>
      <g id="card-2" data-name="card" transform="translate(442 -31)">
        <g id="pic-2" data-name="pic" transform="translate(407 1302)" fill="#ccc" stroke="#707070" stroke-width="1">
          <rect width="240" height="240" rx="20" stroke="none"/>
          <rect x="0.5" y="0.5" width="239" height="239" rx="19.5" fill="none"/>
        </g>
        <g id="name-2" data-name="name" transform="translate(407 1542)" fill="#ccc" stroke="#707070" stroke-width="1">
          <rect width="240" height="50" stroke="none"/>
          <rect x="0.5" y="0.5" width="239" height="49" fill="none"/>
        </g>
        <text id="雞不可濕-2" data-name="雞不可濕" transform="translate(471 1579)" font-size="28" font-family="YuGothicUI-Regular, Yu Gothic UI"><tspan x="0" y="0">雞不可濕</tspan></text>
      </g>
      <g id="card-3" data-name="card" transform="translate(748 -31)">
        <g id="pic-3" data-name="pic" transform="translate(407 1302)" fill="#ccc" stroke="#707070" stroke-width="1">
          <rect width="240" height="240" rx="20" stroke="none"/>
          <rect x="0.5" y="0.5" width="239" height="239" rx="19.5" fill="none"/>
        </g>
        <g id="name-3" data-name="name" transform="translate(407 1542)" fill="#ccc" stroke="#707070" stroke-width="1">
          <rect width="240" height="50" stroke="none"/>
          <rect x="0.5" y="0.5" width="239" height="49" fill="none"/>
        </g>
        <text id="雞不可濕-3" data-name="雞不可濕" transform="translate(471 1579)" font-size="28" font-family="YuGothicUI-Regular, Yu Gothic UI"><tspan x="0" y="0">雞不可濕</tspan></text>
      </g>
      <path id="Icon_material-navigate-before" data-name="Icon material-navigate-before" d="M42,14.709,36.292,9,12,33.291,36.292,57.583,42,51.874,23.457,33.291Z" transform="translate(345 1382.708)"/>
      <path id="Icon_material-navigate-next" data-name="Icon material-navigate-next" d="M18.594,9l-5.708,5.709L31.428,33.291,12.885,51.874l5.709,5.708L42.885,33.291Z" transform="translate(1514.115 1382.708)"/>
    </g>
    <g id="Footer">
      <g id="Footer-2" data-name="Footer" transform="translate(0 1860)" stroke="#707070" stroke-width="1">
        <rect width="1920" height="300" stroke="none"/>
        <rect x="0.5" y="0.5" width="1919" height="299" fill="none"/>
      </g>
    </g>
    <g id="Button-Restaurant" transform="translate(441 1701)" fill="#ccc">
      <path d="M 138 194.6614685058594 C 129.3822174072266 194.6614685058594 120.7337112426758 194.3614044189453 112.2947463989258 193.7695465087891 C 103.7714309692383 193.1717987060547 95.39596557617188 192.2716827392578 87.40096282958984 191.0942230224609 C 70.74253845214844 188.6408233642578 55.90407180786133 185.0433959960938 43.29774856567383 180.4019012451172 C 29.89935684204102 175.4687652587891 19.43760681152344 169.4944763183594 12.20314311981201 162.6450805664063 C 4.4375 155.2927551269531 0.5 147.0009765625 0.5 138.0000152587891 C 0.5 128.6704711914063 1.439892888069153 119.3469696044922 3.293535709381104 110.2884368896484 C 5.099999904632568 101.4603652954102 7.795535564422607 92.77683258056641 11.30521392822266 84.47897338867188 C 14.75125026702881 76.33161163330078 19.01653480529785 68.47347259521484 23.98253631591797 61.12279510498047 C 28.90146446228027 53.84183120727539 34.550537109375 46.99511337280273 40.77282333374023 40.77283096313477 C 46.9951057434082 34.55054473876953 53.84181976318359 28.9014720916748 61.12278747558594 23.9825439453125 C 68.47346496582031 19.01654434204102 76.33160400390625 14.75125789642334 84.47896575927734 11.3052225112915 C 92.77682495117188 7.795543670654297 101.4603576660156 5.100008010864258 110.2884292602539 3.293543577194214 C 119.3469619750977 1.439900755882263 128.6704711914063 0.5000079274177551 138 0.5000079274177551 C 147.3295288085938 0.5000079274177551 156.6530303955078 1.439900755882263 165.7115783691406 3.293543577194214 C 174.5396423339844 5.100008010864258 183.2232208251953 7.795543670654297 191.5210723876953 11.3052225112915 C 199.6683959960938 14.75125789642334 207.5265350341797 19.01654434204102 214.8772125244141 23.9825439453125 C 222.1581726074219 28.9014720916748 229.0049285888672 34.55054473876953 235.2271728515625 40.77283096313477 C 241.449462890625 46.99511337280273 247.0985412597656 53.84183120727539 252.0174713134766 61.12279510498047 C 256.9834899902344 68.47347259521484 261.2487487792969 76.33161163330078 264.6947937011719 84.47897338867188 C 268.2044677734375 92.77683258056641 270.8999938964844 101.4603652954102 272.7065124511719 110.2884368896484 C 274.5601196289063 119.3469696044922 275.5 128.6704711914063 275.5 138.0000152587891 C 275.5 147.0009765625 271.5625 155.2927551269531 263.7968444824219 162.6450805664063 C 256.5623779296875 169.4944763183594 246.1006469726563 175.4687652587891 232.7022552490234 180.4019012451172 C 220.0959320068359 185.0433959960938 205.2574615478516 188.6408233642578 188.5990295410156 191.0942230224609 C 180.6040344238281 192.2716827392578 172.2285766601563 193.1717987060547 163.7052459716797 193.7695465087891 C 155.2662811279297 194.3614044189453 146.6177825927734 194.6614685058594 138 194.6614685058594 Z" stroke="none"/>
      <path d="M 138 1.000015258789063 C 128.7040710449219 1.000015258789063 119.4142913818359 1.936477661132813 110.3886413574219 3.783370971679688 C 101.5929260253906 5.583221435546875 92.94117736816406 8.268905639648438 84.67372131347656 11.76571655273438 C 76.55610656738281 15.19918823242188 68.72660827636719 19.44889831542969 61.40267944335938 24.39686584472656 C 54.1480712890625 29.2979736328125 47.32614135742188 34.92657470703125 41.12635803222656 41.12635803222656 C 34.92657470703125 47.32615661621094 29.29795837402344 54.14808654785156 24.3968505859375 61.40267944335938 C 19.44888305664063 68.72660827636719 15.19918823242188 76.55612182617188 11.76571655273438 84.67372131347656 C 8.268890380859375 92.94118499755859 5.583221435546875 101.5929336547852 3.783355712890625 110.3886489868164 C 1.93646240234375 119.4142913818359 1 128.7040710449219 1 138 C 1 142.49658203125 2.0091552734375 146.8572692871094 3.999359130859375 150.9608306884766 C 5.920562744140625 154.922119140625 8.79638671875 158.7310791015625 12.54690551757813 162.2819671630859 C 19.73190307617188 169.0845489501953 30.13607788085938 175.0230712890625 43.47050476074219 179.9326782226563 C 56.04457092285156 184.5623321533203 70.84939575195313 188.1511840820313 87.47381591796875 190.5995483398438 C 95.45631408691406 191.7751922607422 103.8190307617188 192.6739044189453 112.3297119140625 193.270751953125 C 120.7571105957031 193.8617858886719 129.3938140869141 194.1614685058594 138 194.1614685058594 C 146.6061859130859 194.1614685058594 155.2428894042969 193.8617858886719 163.6702880859375 193.270751953125 C 172.1809692382813 192.6739044189453 180.5436706542969 191.7751922607422 188.5261840820313 190.5995483398438 C 205.1506042480469 188.1511840820313 219.9554290771484 184.5623321533203 232.5294952392578 179.9326782226563 C 245.8639221191406 175.0230712890625 256.2680969238281 169.0845489501953 263.4530944824219 162.2819671630859 C 267.20361328125 158.7310791015625 270.0794372558594 154.922119140625 272.0006408691406 150.9608306884766 C 273.9908447265625 146.8572692871094 275 142.49658203125 275 138 C 275 128.7040710449219 274.0635375976563 119.4142913818359 272.2166442871094 110.3886489868164 C 270.416748046875 101.5929336547852 267.7311096191406 92.94118499755859 264.2342834472656 84.67372131347656 C 260.8008117675781 76.55612182617188 256.5511169433594 68.72660827636719 251.6031494140625 61.40267944335938 C 246.7020416259766 54.14808654785156 241.0733947753906 47.32615661621094 234.8736419677734 41.12635803222656 C 228.6738586425781 34.92657470703125 221.8518981933594 29.2979736328125 214.5972900390625 24.39686584472656 C 207.2733459472656 19.44889831542969 199.44384765625 15.19918823242188 191.3262939453125 11.76571655273438 C 183.0588226318359 8.268905639648438 174.4070739746094 5.583221435546875 165.611328125 3.783370971679688 C 156.5857238769531 1.936477661132813 147.2959289550781 1.000015258789063 138 1.000015258789063 M 138 1.52587890625e-05 C 214.2152862548828 1.52587890625e-05 276 61.78468322753906 276 138 C 276 176.1076507568359 207 195.1614685058594 138 195.1614685058594 C 69 195.1614685058594 0 176.1076507568359 0 138 C 0 61.78468322753906 61.78468322753906 1.52587890625e-05 138 1.52587890625e-05 Z" stroke="none" fill="#707070"/>
    </g>
    <g id="Button-Restaurant-2" data-name="Button-Restaurant" transform="translate(1166 1701)" fill="#ccc">
      <path d="M 138 194.6614685058594 C 129.3822174072266 194.6614685058594 120.7337112426758 194.3614044189453 112.2947463989258 193.7695465087891 C 103.7714309692383 193.1717987060547 95.39596557617188 192.2716827392578 87.40096282958984 191.0942230224609 C 70.74253845214844 188.6408233642578 55.90407180786133 185.0433959960938 43.29774856567383 180.4019012451172 C 29.89935684204102 175.4687652587891 19.43760681152344 169.4944763183594 12.20314311981201 162.6450805664063 C 4.4375 155.2927551269531 0.5 147.0009765625 0.5 138.0000152587891 C 0.5 128.6704711914063 1.439892888069153 119.3469696044922 3.293535709381104 110.2884368896484 C 5.099999904632568 101.4603652954102 7.795535564422607 92.77683258056641 11.30521392822266 84.47897338867188 C 14.75125026702881 76.33161163330078 19.01653480529785 68.47347259521484 23.98253631591797 61.12279510498047 C 28.90146446228027 53.84183120727539 34.550537109375 46.99511337280273 40.77282333374023 40.77283096313477 C 46.9951057434082 34.55054473876953 53.84181976318359 28.9014720916748 61.12278747558594 23.9825439453125 C 68.47346496582031 19.01654434204102 76.33160400390625 14.75125789642334 84.47896575927734 11.3052225112915 C 92.77682495117188 7.795543670654297 101.4603576660156 5.100008010864258 110.2884292602539 3.293543577194214 C 119.3469619750977 1.439900755882263 128.6704711914063 0.5000079274177551 138 0.5000079274177551 C 147.3295288085938 0.5000079274177551 156.6530303955078 1.439900755882263 165.7115783691406 3.293543577194214 C 174.5396423339844 5.100008010864258 183.2232208251953 7.795543670654297 191.5210723876953 11.3052225112915 C 199.6683959960938 14.75125789642334 207.5265350341797 19.01654434204102 214.8772125244141 23.9825439453125 C 222.1581726074219 28.9014720916748 229.0049285888672 34.55054473876953 235.2271728515625 40.77283096313477 C 241.449462890625 46.99511337280273 247.0985412597656 53.84183120727539 252.0174713134766 61.12279510498047 C 256.9834899902344 68.47347259521484 261.2487487792969 76.33161163330078 264.6947937011719 84.47897338867188 C 268.2044677734375 92.77683258056641 270.8999938964844 101.4603652954102 272.7065124511719 110.2884368896484 C 274.5601196289063 119.3469696044922 275.5 128.6704711914063 275.5 138.0000152587891 C 275.5 147.0009765625 271.5625 155.2927551269531 263.7968444824219 162.6450805664063 C 256.5623779296875 169.4944763183594 246.1006469726563 175.4687652587891 232.7022552490234 180.4019012451172 C 220.0959320068359 185.0433959960938 205.2574615478516 188.6408233642578 188.5990295410156 191.0942230224609 C 180.6040344238281 192.2716827392578 172.2285766601563 193.1717987060547 163.7052459716797 193.7695465087891 C 155.2662811279297 194.3614044189453 146.6177825927734 194.6614685058594 138 194.6614685058594 Z" stroke="none"/>
      <path d="M 138 1.000015258789063 C 128.7040710449219 1.000015258789063 119.4142913818359 1.936477661132813 110.3886413574219 3.783370971679688 C 101.5929260253906 5.583221435546875 92.94117736816406 8.268905639648438 84.67372131347656 11.76571655273438 C 76.55610656738281 15.19918823242188 68.72660827636719 19.44889831542969 61.40267944335938 24.39686584472656 C 54.1480712890625 29.2979736328125 47.32614135742188 34.92657470703125 41.12635803222656 41.12635803222656 C 34.92657470703125 47.32615661621094 29.29795837402344 54.14808654785156 24.3968505859375 61.40267944335938 C 19.44888305664063 68.72660827636719 15.19918823242188 76.55612182617188 11.76571655273438 84.67372131347656 C 8.268890380859375 92.94118499755859 5.583221435546875 101.5929336547852 3.783355712890625 110.3886489868164 C 1.93646240234375 119.4142913818359 1 128.7040710449219 1 138 C 1 142.49658203125 2.0091552734375 146.8572692871094 3.999359130859375 150.9608306884766 C 5.920562744140625 154.922119140625 8.79638671875 158.7310791015625 12.54690551757813 162.2819671630859 C 19.73190307617188 169.0845489501953 30.13607788085938 175.0230712890625 43.47050476074219 179.9326782226563 C 56.04457092285156 184.5623321533203 70.84939575195313 188.1511840820313 87.47381591796875 190.5995483398438 C 95.45631408691406 191.7751922607422 103.8190307617188 192.6739044189453 112.3297119140625 193.270751953125 C 120.7571105957031 193.8617858886719 129.3938140869141 194.1614685058594 138 194.1614685058594 C 146.6061859130859 194.1614685058594 155.2428894042969 193.8617858886719 163.6702880859375 193.270751953125 C 172.1809692382813 192.6739044189453 180.5436706542969 191.7751922607422 188.5261840820313 190.5995483398438 C 205.1506042480469 188.1511840820313 219.9554290771484 184.5623321533203 232.5294952392578 179.9326782226563 C 245.8639221191406 175.0230712890625 256.2680969238281 169.0845489501953 263.4530944824219 162.2819671630859 C 267.20361328125 158.7310791015625 270.0794372558594 154.922119140625 272.0006408691406 150.9608306884766 C 273.9908447265625 146.8572692871094 275 142.49658203125 275 138 C 275 128.7040710449219 274.0635375976563 119.4142913818359 272.2166442871094 110.3886489868164 C 270.416748046875 101.5929336547852 267.7311096191406 92.94118499755859 264.2342834472656 84.67372131347656 C 260.8008117675781 76.55612182617188 256.5511169433594 68.72660827636719 251.6031494140625 61.40267944335938 C 246.7020416259766 54.14808654785156 241.0733947753906 47.32615661621094 234.8736419677734 41.12635803222656 C 228.6738586425781 34.92657470703125 221.8518981933594 29.2979736328125 214.5972900390625 24.39686584472656 C 207.2733459472656 19.44889831542969 199.44384765625 15.19918823242188 191.3262939453125 11.76571655273438 C 183.0588226318359 8.268905639648438 174.4070739746094 5.583221435546875 165.611328125 3.783370971679688 C 156.5857238769531 1.936477661132813 147.2959289550781 1.000015258789063 138 1.000015258789063 M 138 1.52587890625e-05 C 214.2152862548828 1.52587890625e-05 276 61.78468322753906 276 138 C 276 176.1076507568359 207 195.1614685058594 138 195.1614685058594 C 69 195.1614685058594 0 176.1076507568359 0 138 C 0 61.78468322753906 61.78468322753906 1.52587890625e-05 138 1.52587890625e-05 Z" stroke="none" fill="#707070"/>
    </g>
  </g>
</svg>
