<svg xmlns="http://www.w3.org/2000/svg" xmlns:xlink="http://www.w3.org/1999/xlink" width="1920" height="2601" viewBox="0 0 1920 2601">
  <defs>
    <style>
      .cls-1 {
        clip-path: url(#clip-關於盤子);
      }

      .cls-11, .cls-2, .cls-4, .cls-5 {
        fill: #fff;
      }

      .cls-12, .cls-2, .cls-6, .cls-7 {
        stroke: #707070;
      }

      .cls-3 {
        font-size: 50px;
      }

      .cls-10, .cls-3 {
        font-family: SegoeUI, Segoe UI;
      }

      .cls-4, .cls-8 {
        font-size: 32px;
      }

      .cls-11, .cls-4, .cls-8, .cls-9 {
        font-family: YuGothicUI-Regular, Yu Gothic UI;
      }

      .cls-6 {
        fill: #666;
      }

      .cls-13, .cls-7 {
        fill: #ccc;
      }

      .cls-11, .cls-9 {
        font-size: 48px;
      }

      .cls-14, .cls-15 {
        stroke: none;
      }

      .cls-15 {
        fill: #707070;
      }

      .cls-16 {
        fill: none;
      }
    </style>
    <clipPath id="clip-關於盤子">
      <rect width="1920" height="2601"/>
    </clipPath>
  </defs>
  <g id="關於盤子" class="cls-1">
    <rect class="cls-5" width="1920" height="2601"/>
    <g id="Header">
      <g id="Header-2" data-name="Header">
        <path class="cls-14" d="M 1919.5 107.5 L 0.5 107.5 L 0.5 0.5000038146972656 L 1782.623291015625 0.5000038146972656 L 1919.5 0.5000038146972656 L 1919.5 107.5 Z"/>
        <path class="cls-15" d="M 1 1.000007629394531 L 1 107 L 1919 107 L 1919 1.000007629394531 L 1782.623291015625 1.000007629394531 L 1 1.000007629394531 M 0 7.62939453125e-06 L 1782.623291015625 7.62939453125e-06 L 1920 7.62939453125e-06 L 1920 108 L 0 108 L 0 7.62939453125e-06 Z"/>
      </g>
      <g id="LOGO">
        <g id="Rectangle_3" data-name="Rectangle 3" class="cls-2" transform="translate(27 14)">
          <rect class="cls-14" width="250" height="80"/>
          <rect class="cls-16" x="0.5" y="0.5" width="249" height="79"/>
        </g>
        <text id="LOGO-2" data-name="LOGO" class="cls-3" transform="translate(86 75)"><tspan x="0" y="0">LOGO</tspan></text>
      </g>
      <text id="關於盤子-2" data-name="關於盤子" class="cls-4" transform="translate(939 68)"><tspan x="0" y="0">關於盤子</tspan></text>
      <text id="餐盤營養" class="cls-4" transform="translate(1105 68)"><tspan x="0" y="0">餐盤營養</tspan></text>
      <text id="精選餐盤" class="cls-4" transform="translate(1283 68)"><tspan x="0" y="0">精選餐盤</tspan></text>
      <text id="餐盤總攬" class="cls-4" transform="translate(1461 68)"><tspan x="0" y="0">餐盤總攬</tspan></text>
      <text id="餐點搭配" class="cls-4" transform="translate(1639 68)"><tspan x="0" y="0">餐點搭配</tspan></text>
      <g id="Icon_map-grocery-or-supermarket" data-name="Icon map-grocery-or-supermarket" transform="translate(1814 29.272)">
        <path id="Path_2" data-name="Path 2" class="cls-5" d="M34.56,30.24a2.88,2.88,0,1,1-2.88-2.88,2.88,2.88,0,0,1,2.88,2.88Z" transform="translate(14.72 12.016)"/>
        <path id="Path_3" data-name="Path 3" class="cls-5" d="M13.68,30.24a2.88,2.88,0,1,1-2.88-2.88,2.88,2.88,0,0,1,2.88,2.88Z" transform="translate(3.949 12.016)"/>
        <path id="Path_4" data-name="Path 4" class="cls-5" d="M47.959,34.226H16.093l.681-1.2a2.381,2.381,0,0,0,.238-1.72l-.664-2.776,29.574-1.668a2.288,2.288,0,0,0,2.038-2.329V9.858a2.14,2.14,0,0,0-2.041-2.215H11.346l-.4-1.665A2.078,2.078,0,0,0,8.971,4.32H2.041A2.133,2.133,0,0,0,0,6.535,2.133,2.133,0,0,0,2.041,8.75H7.394l5.449,22.756L10.7,35.278a2.377,2.377,0,0,0-.044,2.242,2.018,2.018,0,0,0,1.781,1.136H47.959a2.223,2.223,0,0,0,0-4.43Z" transform="translate(0 0)"/>
      </g>
    </g>
    <g id="Body" transform="translate(4.768 134)">
      <g id="Banner" class="cls-6" transform="translate(580.232 10)">
        <ellipse class="cls-14" cx="375" cy="225" rx="375" ry="225"/>
        <ellipse class="cls-16" cx="375" cy="225" rx="374.5" ry="224.5"/>
      </g>
      <g id="story">
        <g id="story-2" data-name="story" class="cls-7" transform="translate(-4.768 488)">
          <rect class="cls-14" width="1920" height="500"/>
          <rect class="cls-16" x="0.5" y="0.5" width="1919" height="499"/>
        </g>
        <g id="story-text" class="cls-2" transform="translate(355.232 513)">
          <rect class="cls-14" width="1200" height="450" rx="20"/>
          <rect class="cls-16" x="0.5" y="0.5" width="1199" height="449" rx="19.5"/>
        </g>
        <text id="我的女王_攻擊了你的餐桌" data-name="我的女王，攻擊了你的餐桌" class="cls-8" transform="translate(763.232 575)"><tspan x="0" y="0">我的女王，攻擊了你的餐桌</tspan></text>
      </g>
      <g id="我們的堅持">
        <g id="Rectangle_22" data-name="Rectangle 22" class="cls-2" transform="translate(963.232 987)">
          <rect class="cls-14" width="592" height="100"/>
          <rect class="cls-16" x="0.5" y="0.5" width="591" height="99"/>
        </g>
        <text id="我們的堅持_腳印_" data-name="我們的堅持 (腳印)" class="cls-9" transform="translate(1070.232 1057)"><tspan x="0" y="0">我們的堅持</tspan><tspan class="cls-10" y="0" xml:space="preserve"> (</tspan><tspan y="0">腳印</tspan><tspan class="cls-10" y="0">)</tspan></text>
        <g id="Rectangle_23" data-name="Rectangle 23" class="cls-7" transform="translate(355.232 1087)">
          <rect class="cls-14" width="1200" height="400"/>
          <rect class="cls-16" x="0.5" y="0.5" width="1199" height="399"/>
        </g>
        <path id="Path_8" data-name="Path 8" class="cls-6" d="M993.122,1087h524.528v400H749.591Z" transform="translate(37.583 0)"/>
        <text id="隱藏_hover_" data-name="隱藏 hover " class="cls-11" transform="translate(1259.232 1429)"><tspan x="0" y="0">隱藏</tspan><tspan class="cls-10" y="0" xml:space="preserve"> hover </tspan></text>
      </g>
      <g id="我們的堅持-2" data-name="我們的堅持" transform="translate(0 500)">
        <g id="Rectangle_21" data-name="Rectangle 21" class="cls-2" transform="translate(355.232 987)">
          <rect class="cls-14" width="592" height="100"/>
          <rect class="cls-16" x="0.5" y="0.5" width="591" height="99"/>
        </g>
        <text id="我們的執著_腳印_" data-name="我們的執著 (腳印)" class="cls-9" transform="translate(462.232 1057)"><tspan x="0" y="0">我們的執著</tspan><tspan class="cls-10" y="0" xml:space="preserve"> (</tspan><tspan y="0">腳印</tspan><tspan class="cls-10" y="0">)</tspan></text>
        <g id="Rectangle_23-2" data-name="Rectangle 23" class="cls-7" transform="translate(355.232 1087)">
          <rect class="cls-14" width="1200" height="400"/>
          <rect class="cls-16" x="0.5" y="0.5" width="1199" height="399"/>
        </g>
        <path id="Path_9" data-name="Path 9" class="cls-6" d="M355.232,1087H943.771l234.9,400H355.232Z"/>
        <text id="隱藏_hover_2" data-name="隱藏 hover " class="cls-11" transform="translate(442.232 1423)"><tspan x="0" y="0">隱藏</tspan><tspan class="cls-10" y="0" xml:space="preserve"> hover </tspan></text>
      </g>
      <text id="圖片變形" class="cls-11" transform="translate(994.232 367)"><tspan x="0" y="0">圖片變形</tspan></text>
    </g>
    <g id="Footer" transform="translate(0 441)">
      <g id="Footer-2" data-name="Footer" class="cls-12" transform="translate(0 1860)">
        <rect class="cls-14" width="1920" height="300"/>
        <rect class="cls-16" x="0.5" y="0.5" width="1919" height="299"/>
      </g>
      <g id="Button-Restaurant" class="cls-13" transform="translate(423 1717)">
        <path class="cls-14" d="M 138 194.6614685058594 C 129.3822174072266 194.6614685058594 120.7337112426758 194.3614044189453 112.2947463989258 193.7695465087891 C 103.7714309692383 193.1717987060547 95.39596557617188 192.2716827392578 87.40096282958984 191.0942230224609 C 70.74253845214844 188.6408233642578 55.90407180786133 185.0433959960938 43.29774856567383 180.4019012451172 C 29.89935684204102 175.4687652587891 19.43760681152344 169.4944763183594 12.20314311981201 162.6450805664063 C 4.4375 155.2927551269531 0.5 147.0009765625 0.5 138.0000152587891 C 0.5 128.6704711914063 1.439892888069153 119.3469696044922 3.293535709381104 110.2884368896484 C 5.099999904632568 101.4603652954102 7.795535564422607 92.77683258056641 11.30521392822266 84.47897338867188 C 14.75125026702881 76.33161163330078 19.01653480529785 68.47347259521484 23.98253631591797 61.12279510498047 C 28.90146446228027 53.84183120727539 34.550537109375 46.99511337280273 40.77282333374023 40.77283096313477 C 46.9951057434082 34.55054473876953 53.84181976318359 28.9014720916748 61.12278747558594 23.9825439453125 C 68.47346496582031 19.01654434204102 76.33160400390625 14.75125789642334 84.47896575927734 11.3052225112915 C 92.77682495117188 7.795543670654297 101.4603576660156 5.100008010864258 110.2884292602539 3.293543577194214 C 119.3469619750977 1.439900755882263 128.6704711914063 0.5000079274177551 138 0.5000079274177551 C 147.3295288085938 0.5000079274177551 156.6530303955078 1.439900755882263 165.7115783691406 3.293543577194214 C 174.5396423339844 5.100008010864258 183.2232208251953 7.795543670654297 191.5210723876953 11.3052225112915 C 199.6683959960938 14.75125789642334 207.5265350341797 19.01654434204102 214.8772125244141 23.9825439453125 C 222.1581726074219 28.9014720916748 229.0049285888672 34.55054473876953 235.2271728515625 40.77283096313477 C 241.449462890625 46.99511337280273 247.0985412597656 53.84183120727539 252.0174713134766 61.12279510498047 C 256.9834899902344 68.47347259521484 261.2487487792969 76.33161163330078 264.6947937011719 84.47897338867188 C 268.2044677734375 92.77683258056641 270.8999938964844 101.4603652954102 272.7065124511719 110.2884368896484 C 274.5601196289063 119.3469696044922 275.5 128.6704711914063 275.5 138.0000152587891 C 275.5 147.0009765625 271.5625 155.2927551269531 263.7968444824219 162.6450805664063 C 256.5623779296875 169.4944763183594 246.1006469726563 175.4687652587891 232.7022552490234 180.4019012451172 C 220.0959320068359 185.0433959960938 205.2574615478516 188.6408233642578 188.5990295410156 191.0942230224609 C 180.6040344238281 192.2716827392578 172.2285766601563 193.1717987060547 163.7052459716797 193.7695465087891 C 155.2662811279297 194.3614044189453 146.6177825927734 194.6614685058594 138 194.6614685058594 Z"/>
        <path class="cls-15" d="M 138 1.000015258789063 C 128.7040710449219 1.000015258789063 119.4142913818359 1.936477661132813 110.3886413574219 3.783370971679688 C 101.5929260253906 5.583221435546875 92.94117736816406 8.268905639648438 84.67372131347656 11.76571655273438 C 76.55610656738281 15.19918823242188 68.72660827636719 19.44889831542969 61.40267944335938 24.39686584472656 C 54.1480712890625 29.2979736328125 47.32614135742188 34.92657470703125 41.12635803222656 41.12635803222656 C 34.92657470703125 47.32615661621094 29.29795837402344 54.14808654785156 24.3968505859375 61.40267944335938 C 19.44888305664063 68.72660827636719 15.19918823242188 76.55612182617188 11.76571655273438 84.67372131347656 C 8.268890380859375 92.94118499755859 5.583221435546875 101.5929336547852 3.783355712890625 110.3886489868164 C 1.93646240234375 119.4142913818359 1 128.7040710449219 1 138 C 1 142.49658203125 2.0091552734375 146.8572692871094 3.999359130859375 150.9608306884766 C 5.920562744140625 154.922119140625 8.79638671875 158.7310791015625 12.54690551757813 162.2819671630859 C 19.73190307617188 169.0845489501953 30.13607788085938 175.0230712890625 43.47050476074219 179.9326782226563 C 56.04457092285156 184.5623321533203 70.84939575195313 188.1511840820313 87.47381591796875 190.5995483398438 C 95.45631408691406 191.7751922607422 103.8190307617188 192.6739044189453 112.3297119140625 193.270751953125 C 120.7571105957031 193.8617858886719 129.3938140869141 194.1614685058594 138 194.1614685058594 C 146.6061859130859 194.1614685058594 155.2428894042969 193.8617858886719 163.6702880859375 193.270751953125 C 172.1809692382813 192.6739044189453 180.5436706542969 191.7751922607422 188.5261840820313 190.5995483398438 C 205.1506042480469 188.1511840820313 219.9554290771484 184.5623321533203 232.5294952392578 179.9326782226563 C 245.8639221191406 175.0230712890625 256.2680969238281 169.0845489501953 263.4530944824219 162.2819671630859 C 267.20361328125 158.7310791015625 270.0794372558594 154.922119140625 272.0006408691406 150.9608306884766 C 273.9908447265625 146.8572692871094 275 142.49658203125 275 138 C 275 128.7040710449219 274.0635375976563 119.4142913818359 272.2166442871094 110.3886489868164 C 270.416748046875 101.5929336547852 267.7311096191406 92.94118499755859 264.2342834472656 84.67372131347656 C 260.8008117675781 76.55612182617188 256.5511169433594 68.72660827636719 251.6031494140625 61.40267944335938 C 246.7020416259766 54.14808654785156 241.0733947753906 47.32615661621094 234.8736419677734 41.12635803222656 C 228.6738586425781 34.92657470703125 221.8518981933594 29.2979736328125 214.5972900390625 24.39686584472656 C 207.2733459472656 19.44889831542969 199.44384765625 15.19918823242188 191.3262939453125 11.76571655273438 C 183.0588226318359 8.268905639648438 174.4070739746094 5.583221435546875 165.611328125 3.783370971679688 C 156.5857238769531 1.936477661132813 147.2959289550781 1.000015258789063 138 1.000015258789063 M 138 1.52587890625e-05 C 214.2152862548828 1.52587890625e-05 276 61.78468322753906 276 138 C 276 176.1076507568359 207 195.1614685058594 138 195.1614685058594 C 69 195.1614685058594 0 176.1076507568359 0 138 C 0 61.78468322753906 61.78468322753906 1.52587890625e-05 138 1.52587890625e-05 Z"/>
      </g>
      <g id="Button-Restaurant-2" data-name="Button-Restaurant" class="cls-13" transform="translate(1167 1717)">
        <path class="cls-14" d="M 138 194.6614685058594 C 129.3822174072266 194.6614685058594 120.7337112426758 194.3614044189453 112.2947463989258 193.7695465087891 C 103.7714309692383 193.1717987060547 95.39596557617188 192.2716827392578 87.40096282958984 191.0942230224609 C 70.74253845214844 188.6408233642578 55.90407180786133 185.0433959960938 43.29774856567383 180.4019012451172 C 29.89935684204102 175.4687652587891 19.43760681152344 169.4944763183594 12.20314311981201 162.6450805664063 C 4.4375 155.2927551269531 0.5 147.0009765625 0.5 138.0000152587891 C 0.5 128.6704711914063 1.439892888069153 119.3469696044922 3.293535709381104 110.2884368896484 C 5.099999904632568 101.4603652954102 7.795535564422607 92.77683258056641 11.30521392822266 84.47897338867188 C 14.75125026702881 76.33161163330078 19.01653480529785 68.47347259521484 23.98253631591797 61.12279510498047 C 28.90146446228027 53.84183120727539 34.550537109375 46.99511337280273 40.77282333374023 40.77283096313477 C 46.9951057434082 34.55054473876953 53.84181976318359 28.9014720916748 61.12278747558594 23.9825439453125 C 68.47346496582031 19.01654434204102 76.33160400390625 14.75125789642334 84.47896575927734 11.3052225112915 C 92.77682495117188 7.795543670654297 101.4603576660156 5.100008010864258 110.2884292602539 3.293543577194214 C 119.3469619750977 1.439900755882263 128.6704711914063 0.5000079274177551 138 0.5000079274177551 C 147.3295288085938 0.5000079274177551 156.6530303955078 1.439900755882263 165.7115783691406 3.293543577194214 C 174.5396423339844 5.100008010864258 183.2232208251953 7.795543670654297 191.5210723876953 11.3052225112915 C 199.6683959960938 14.75125789642334 207.5265350341797 19.01654434204102 214.8772125244141 23.9825439453125 C 222.1581726074219 28.9014720916748 229.0049285888672 34.55054473876953 235.2271728515625 40.77283096313477 C 241.449462890625 46.99511337280273 247.0985412597656 53.84183120727539 252.0174713134766 61.12279510498047 C 256.9834899902344 68.47347259521484 261.2487487792969 76.33161163330078 264.6947937011719 84.47897338867188 C 268.2044677734375 92.77683258056641 270.8999938964844 101.4603652954102 272.7065124511719 110.2884368896484 C 274.5601196289063 119.3469696044922 275.5 128.6704711914063 275.5 138.0000152587891 C 275.5 147.0009765625 271.5625 155.2927551269531 263.7968444824219 162.6450805664063 C 256.5623779296875 169.4944763183594 246.1006469726563 175.4687652587891 232.7022552490234 180.4019012451172 C 220.0959320068359 185.0433959960938 205.2574615478516 188.6408233642578 188.5990295410156 191.0942230224609 C 180.6040344238281 192.2716827392578 172.2285766601563 193.1717987060547 163.7052459716797 193.7695465087891 C 155.2662811279297 194.3614044189453 146.6177825927734 194.6614685058594 138 194.6614685058594 Z"/>
        <path class="cls-15" d="M 138 1.000015258789063 C 128.7040710449219 1.000015258789063 119.4142913818359 1.936477661132813 110.3886413574219 3.783370971679688 C 101.5929260253906 5.583221435546875 92.94117736816406 8.268905639648438 84.67372131347656 11.76571655273438 C 76.55610656738281 15.19918823242188 68.72660827636719 19.44889831542969 61.40267944335938 24.39686584472656 C 54.1480712890625 29.2979736328125 47.32614135742188 34.92657470703125 41.12635803222656 41.12635803222656 C 34.92657470703125 47.32615661621094 29.29795837402344 54.14808654785156 24.3968505859375 61.40267944335938 C 19.44888305664063 68.72660827636719 15.19918823242188 76.55612182617188 11.76571655273438 84.67372131347656 C 8.268890380859375 92.94118499755859 5.583221435546875 101.5929336547852 3.783355712890625 110.3886489868164 C 1.93646240234375 119.4142913818359 1 128.7040710449219 1 138 C 1 142.49658203125 2.0091552734375 146.8572692871094 3.999359130859375 150.9608306884766 C 5.920562744140625 154.922119140625 8.79638671875 158.7310791015625 12.54690551757813 162.2819671630859 C 19.73190307617188 169.0845489501953 30.13607788085938 175.0230712890625 43.47050476074219 179.9326782226563 C 56.04457092285156 184.5623321533203 70.84939575195313 188.1511840820313 87.47381591796875 190.5995483398438 C 95.45631408691406 191.7751922607422 103.8190307617188 192.6739044189453 112.3297119140625 193.270751953125 C 120.7571105957031 193.8617858886719 129.3938140869141 194.1614685058594 138 194.1614685058594 C 146.6061859130859 194.1614685058594 155.2428894042969 193.8617858886719 163.6702880859375 193.270751953125 C 172.1809692382813 192.6739044189453 180.5436706542969 191.7751922607422 188.5261840820313 190.5995483398438 C 205.1506042480469 188.1511840820313 219.9554290771484 184.5623321533203 232.5294952392578 179.9326782226563 C 245.8639221191406 175.0230712890625 256.2680969238281 169.0845489501953 263.4530944824219 162.2819671630859 C 267.20361328125 158.7310791015625 270.0794372558594 154.922119140625 272.0006408691406 150.9608306884766 C 273.9908447265625 146.8572692871094 275 142.49658203125 275 138 C 275 128.7040710449219 274.0635375976563 119.4142913818359 272.2166442871094 110.3886489868164 C 270.416748046875 101.5929336547852 267.7311096191406 92.94118499755859 264.2342834472656 84.67372131347656 C 260.8008117675781 76.55612182617188 256.5511169433594 68.72660827636719 251.6031494140625 61.40267944335938 C 246.7020416259766 54.14808654785156 241.0733947753906 47.32615661621094 234.8736419677734 41.12635803222656 C 228.6738586425781 34.92657470703125 221.8518981933594 29.2979736328125 214.5972900390625 24.39686584472656 C 207.2733459472656 19.44889831542969 199.44384765625 15.19918823242188 191.3262939453125 11.76571655273438 C 183.0588226318359 8.268905639648438 174.4070739746094 5.583221435546875 165.611328125 3.783370971679688 C 156.5857238769531 1.936477661132813 147.2959289550781 1.000015258789063 138 1.000015258789063 M 138 1.52587890625e-05 C 214.2152862548828 1.52587890625e-05 276 61.78468322753906 276 138 C 276 176.1076507568359 207 195.1614685058594 138 195.1614685058594 C 69 195.1614685058594 0 176.1076507568359 0 138 C 0 61.78468322753906 61.78468322753906 1.52587890625e-05 138 1.52587890625e-05 Z"/>
      </g>
    </g>
  </g>
</svg>
